<svg width="32" height="32" viewBox="0 0 32 32" fill="none" xmlns="http://www.w3.org/2000/svg">
<rect width="32" height="32" rx="8" fill="black"/>
<path d="M1.80859 16.3313V15.2063L6.30859 13.2248V14.5192L3.22763 15.756L3.26918 15.6889V15.8487L3.22763 15.7816L6.30859 17.0185V18.3129L1.80859 16.3313ZM7.68608 19V12.4545H10.2685C10.7628 12.4545 11.1847 12.543 11.5341 12.7198C11.8857 12.8945 12.1531 13.1428 12.3363 13.4645C12.5217 13.7841 12.6143 14.1602 12.6143 14.5927C12.6143 15.0273 12.5206 15.4013 12.3331 15.7145C12.1456 16.0256 11.8739 16.2642 11.5181 16.4304C11.1644 16.5966 10.7362 16.6797 10.2333 16.6797H8.50426V15.5675H10.0096C10.2738 15.5675 10.4933 15.5312 10.668 15.4588C10.8427 15.3864 10.9727 15.2777 11.0579 15.1328C11.1452 14.9879 11.1889 14.8079 11.1889 14.5927C11.1889 14.3754 11.1452 14.1921 11.0579 14.043C10.9727 13.8938 10.8416 13.7809 10.6648 13.7042C10.4901 13.6254 10.2695 13.5859 10.0032 13.5859H9.06996V19H7.68608ZM11.2209 16.0213L12.8477 19H11.32L9.72834 16.0213H11.2209ZM16.4176 12.1477L14.3082 19.9844H13.1353L15.2447 12.1477H16.4176ZM19.4195 19H17.0992V12.4545H19.4387C20.097 12.4545 20.6638 12.5856 21.1389 12.8477C21.6141 13.1076 21.9795 13.4815 22.2352 13.9695C22.493 14.4574 22.6219 15.0412 22.6219 15.7209C22.6219 16.4027 22.493 16.9886 22.2352 17.4787C21.9795 17.9687 21.6119 18.3448 21.1325 18.6069C20.6553 18.869 20.0843 19 19.4195 19ZM18.483 17.8143H19.3619C19.771 17.8143 20.1151 17.7418 20.3943 17.5969C20.6755 17.4499 20.8865 17.223 21.0271 16.9162C21.1698 16.6072 21.2412 16.2088 21.2412 15.7209C21.2412 15.2372 21.1698 14.842 21.0271 14.5352C20.8865 14.2283 20.6766 14.0025 20.3975 13.8576C20.1183 13.7127 19.7742 13.6403 19.3651 13.6403H18.483V17.8143ZM28.3867 16.3313L23.8867 18.3129V17.0185L26.9677 15.7816L26.9261 15.8487V15.6889L26.9677 15.756L23.8867 14.5192V13.2248L28.3867 15.2063V16.3313Z" fill="white"/>
</svg>
